<?xml version="1.0" encoding="UTF-8" standalone="no"?>
<!-- Created with Inkscape (http://www.inkscape.org/) -->

<svg
   width="99.418404mm"
   height="17.599874mm"
   viewBox="0 0 99.418404 17.599874"
   version="1.1"
   id="svg1"
   sodipodi:docname="logo-white.svg"
   inkscape:version="1.4.3 (0d15f75042, 2025-12-25)"
   inkscape:export-filename="..\Exports\TemplateStack.svg"
   inkscape:export-xdpi="96"
   inkscape:export-ydpi="96"
   xmlns:inkscape="http://www.inkscape.org/namespaces/inkscape"
   xmlns:sodipodi="http://sodipodi.sourceforge.net/DTD/sodipodi-0.dtd"
   xmlns="http://www.w3.org/2000/svg"
   xmlns:svg="http://www.w3.org/2000/svg">
  <sodipodi:namedview
     id="namedview1"
     pagecolor="#000000"
     bordercolor="#000000"
     borderopacity="0.25"
     inkscape:showpageshadow="2"
     inkscape:pageopacity="0.0"
     inkscape:pagecheckerboard="0"
     inkscape:deskcolor="#d1d1d1"
     inkscape:document-units="mm"
     inkscape:zoom="1"
     inkscape:cx="289.99999"
     inkscape:cy="305.99999"
     inkscape:window-width="1342"
     inkscape:window-height="707"
     inkscape:window-x="0"
     inkscape:window-y="0"
     inkscape:window-maximized="1"
     inkscape:current-layer="layer2"
     showguides="true"
     inkscape:export-bgcolor="#ffffff00">
    <sodipodi:guide
       position="77.119999,17.266873"
       orientation="0,-1"
       id="guide7"
       inkscape:locked="false" />
    <sodipodi:guide
       position="77.040419,0.33250374"
       orientation="0,-1"
       id="guide8"
       inkscape:locked="false" />
  </sodipodi:namedview>
  <defs
     id="defs1" />
  <g
     inkscape:label="Logo1"
     inkscape:groupmode="layer"
     id="layer1"
     style="display:none"
     sodipodi:insensitive="true"
     transform="translate(-34.528999,-74.266057)">
    <g
       id="g1"
       inkscape:label="int">
      <path
         id="rect1"
         style="stroke-width:0.213934"
         inkscape:label="int"
         d="m 20.806278,38.172699 h 41.896137 c 2.037984,0 3.678671,1.640687 3.678671,3.678671 0,2.037984 -1.640687,3.678671 -3.678671,3.678671 H 20.806278 c -2.037983,0 -3.678671,-1.640687 -3.678671,-3.678671 0,-2.037984 1.640688,-3.678671 3.678671,-3.678671 z" />
      <path
         style="font-weight:bold;font-size:7.31195px;font-family:'JetBrains Mono';-inkscape-font-specification:'JetBrains Mono Bold';text-align:center;text-anchor:middle;fill:#ffffff;stroke-width:0.109679"
         d="m 35.711018,44.724964 v -0.82625 h 1.374646 v -2.369072 h -1.228407 v -0.82625 h 2.142401 v 3.195322 h 1.23572 v 0.82625 z m 1.769492,-4.694272 q -0.277855,0 -0.438717,-0.138927 -0.160863,-0.146239 -0.160863,-0.387533 0,-0.241295 0.160863,-0.380222 0.160862,-0.146239 0.438717,-0.146239 0.277854,0 0.438717,0.146239 0.160862,0.138927 0.160862,0.380222 0,0.241294 -0.160862,0.387533 -0.160863,0.138927 -0.438717,0.138927 z m 2.624992,4.694272 v -4.021572 h 0.892058 v 0.75313 q 0.07312,-0.380221 0.358286,-0.59958 0.285166,-0.22667 0.723883,-0.22667 0.592268,0 0.943241,0.394845 0.358286,0.394846 0.358286,1.060233 v 2.639614 h -0.913994 v -2.529935 q 0,-0.372909 -0.197423,-0.570332 -0.19011,-0.204734 -0.519148,-0.204734 -0.343662,0 -0.541084,0.204734 -0.190111,0.204735 -0.190111,0.584956 v 2.515311 z m 6.419895,0 q -0.56302,0 -0.89937,-0.321726 -0.329038,-0.329037 -0.329038,-0.884746 v -1.98885 h -1.111416 v -0.82625 h 1.111416 v -1.133353 h 0.921306 v 1.133353 h 1.601317 v 0.82625 h -1.601317 v 1.966915 q 0,0.175486 0.09506,0.292478 0.102367,0.109679 0.277854,0.109679 h 1.191848 v 0.82625 z"
         id="text1"
         inkscape:label="int"
         aria-label="int" />
    </g>
    <g
       id="g2"
       inkscape:label="long"
       transform="translate(0,2.6576556)">
      <path
         id="rect2"
         style="stroke-width:0.213934"
         inkscape:label="long"
         d="m 20.806278,25.801819 h 41.896137 c 2.037984,0 3.678671,1.640687 3.678671,3.678671 0,2.037983 -1.640687,3.678671 -3.678671,3.678671 H 20.806278 c -2.037983,0 -3.678671,-1.640688 -3.678671,-3.678671 0,-2.037984 1.640688,-3.678671 3.678671,-3.678671 z" />
      <path
         style="font-weight:bold;font-size:7.31195px;font-family:'JetBrains Mono';-inkscape-font-specification:'JetBrains Mono Bold';text-align:center;text-anchor:middle;fill:#ffffff;stroke-width:0.109679"
         d="m 36.007152,31.49128 q -0.59958,0 -0.965178,-0.358286 -0.358285,-0.358286 -0.358285,-0.943242 v -3.209946 h -1.323463 v -0.82625 h 2.237457 v 4.014261 q 0,0.22667 0.124303,0.365597 0.131615,0.131615 0.350973,0.131615 h 1.177224 v 0.826251 z m 3.736409,0.06581 q -0.775067,0 -1.228408,-0.431405 -0.453341,-0.438717 -0.453341,-1.177224 v -0.93593 q 0,-0.745818 0.453341,-1.177224 0.453341,-0.431405 1.228408,-0.431405 0.775067,0 1.228408,0.431405 0.453341,0.431406 0.453341,1.177224 v 0.93593 q 0,0.738507 -0.453341,1.177224 -0.453341,0.431405 -1.228408,0.431405 z m 0,-0.797002 q 0.365597,0 0.56302,-0.197423 0.204735,-0.204735 0.204735,-0.584956 v -0.994425 q 0,-0.380222 -0.204735,-0.577644 -0.197423,-0.204735 -0.56302,-0.204735 -0.365598,0 -0.570332,0.204735 -0.197423,0.197422 -0.197423,0.577644 v 0.994425 q 0,0.380221 0.197423,0.584956 0.204734,0.197423 0.570332,0.197423 z m 2.756608,0.731195 V 27.46971 h 0.892058 v 0.753131 q 0.07312,-0.380222 0.358285,-0.59958 0.285166,-0.226671 0.723883,-0.226671 0.592268,0 0.943242,0.394846 0.358285,0.394845 0.358285,1.060233 v 2.639614 h -0.913993 v -2.529935 q 0,-0.37291 -0.197423,-0.570332 -0.190111,-0.204735 -0.519148,-0.204735 -0.343662,0 -0.541085,0.204735 -0.19011,0.204734 -0.19011,0.584956 v 2.515311 z m 4.935569,1.316151 v -0.760443 h 1.133352 q 0.321726,0 0.497213,-0.175487 0.175486,-0.168175 0.175486,-0.460653 v -0.241294 l 0.01462,-0.628828 q -0.124303,0.33635 -0.402157,0.52646 -0.270542,0.182799 -0.665387,0.182799 -0.614204,0 -0.979802,-0.409469 -0.358285,-0.416781 -0.358285,-1.12604 V 28.9321 q 0,-0.701947 0.358285,-1.118728 0.365598,-0.416782 0.979802,-0.416782 0.394845,0 0.665387,0.190111 0.277854,0.182799 0.402157,0.526461 V 27.46971 h 0.892058 v 3.963077 q 0,0.63614 -0.424093,1.001737 -0.416781,0.37291 -1.140664,0.37291 z m 1.060233,-2.339824 q 0.350973,0 0.541084,-0.204735 0.197423,-0.212047 0.197423,-0.584956 v -0.701947 q 0,-0.37291 -0.197423,-0.577644 -0.190111,-0.212047 -0.541084,-0.212047 -0.350974,0 -0.541085,0.204735 -0.19011,0.197422 -0.19011,0.555708 v 0.760443 q 0,0.358285 0.19011,0.56302 0.190111,0.197423 0.541085,0.197423 z"
         id="text2"
         inkscape:label="long"
         aria-label="long" />
    </g>
    <g
       id="g3"
       inkscape:label="double"
       transform="translate(0,-7.3638168)">
      <path
         id="rect3"
         style="stroke-width:0.213934"
         inkscape:label="double"
         d="m 20.806278,25.801819 h 41.896137 c 2.037984,0 3.678671,1.640687 3.678671,3.678671 0,2.037983 -1.640687,3.678671 -3.678671,3.678671 H 20.806278 c -2.037983,0 -3.678671,-1.640688 -3.678671,-3.678671 0,-2.037984 1.640688,-3.678671 3.678671,-3.678671 z" />
      <path
         style="font-weight:bold;font-size:7.31195px;font-family:'JetBrains Mono';-inkscape-font-specification:'JetBrains Mono Bold';text-align:center;text-anchor:middle;fill:#ffffff;stroke-width:0.109679"
         d="m 30.420818,32.185916 q -0.584956,0 -0.950554,-0.416781 -0.358286,-0.416781 -0.358286,-1.118728 v -1.089481 q 0,-0.709259 0.358286,-1.12604 0.358286,-0.416781 0.950554,-0.416781 0.416781,0 0.701947,0.212046 0.292478,0.212047 0.409469,0.592268 l -0.02925,-0.921306 v -1.12604 h 0.913994 v 5.337724 H 31.52492 v -0.731195 q -0.109679,0.380221 -0.394845,0.592268 -0.285166,0.212046 -0.709259,0.212046 z m 0.343661,-0.78969 q 0.350974,0 0.541085,-0.212047 0.197422,-0.212046 0.197422,-0.59958 v -0.965177 q 0,-0.387534 -0.197422,-0.59958 -0.190111,-0.212047 -0.541085,-0.212047 -0.350973,0 -0.548396,0.190111 -0.190111,0.190111 -0.190111,0.584956 v 1.038297 q 0,0.394845 0.190111,0.584956 0.197423,0.190111 0.548396,0.190111 z m 4.409109,0.782378 q -0.775067,0 -1.228408,-0.431405 -0.453341,-0.438717 -0.453341,-1.177224 v -0.935929 q 0,-0.745819 0.453341,-1.177224 0.453341,-0.431405 1.228408,-0.431405 0.775066,0 1.228407,0.431405 0.453341,0.431405 0.453341,1.177224 v 0.935929 q 0,0.738507 -0.453341,1.177224 -0.453341,0.431405 -1.228407,0.431405 z m 0,-0.797002 q 0.365597,0 0.56302,-0.197423 0.204735,-0.204734 0.204735,-0.584956 v -0.994425 q 0,-0.380222 -0.204735,-0.577644 -0.197423,-0.204735 -0.56302,-0.204735 -0.365598,0 -0.570332,0.204735 -0.197423,0.197422 -0.197423,0.577644 v 0.994425 q 0,0.380222 0.197423,0.584956 0.204734,0.197423 0.570332,0.197423 z m 4.387172,0.804314 q -0.767754,0 -1.206471,-0.424093 -0.438717,-0.431405 -0.438717,-1.169912 v -2.500687 h 0.913993 v 2.493375 q 0,0.380222 0.190111,0.592268 0.190111,0.212047 0.541084,0.212047 0.343662,0 0.533773,-0.212047 0.197422,-0.212046 0.197422,-0.592268 v -2.493375 h 0.913994 v 2.500687 q 0,0.738507 -0.446029,1.169912 -0.446029,0.424093 -1.19916,0.424093 z m 4.752771,0 q -0.424093,0 -0.709259,-0.212046 -0.285167,-0.212047 -0.394846,-0.592268 v 0.731195 h -0.892058 v -5.337724 h 0.913994 v 1.12604 l -0.02925,0.921306 q 0.116991,-0.380221 0.402158,-0.592268 0.292478,-0.212046 0.709259,-0.212046 0.592268,0 0.950553,0.416781 0.358286,0.416781 0.358286,1.12604 v 1.089481 q 0,0.701947 -0.365598,1.118728 -0.358285,0.416781 -0.943241,0.416781 z m -0.343662,-0.78969 q 0.350974,0 0.541084,-0.190111 0.197423,-0.190111 0.197423,-0.584956 v -1.038297 q 0,-0.394845 -0.197423,-0.584956 -0.19011,-0.190111 -0.541084,-0.190111 -0.350974,0 -0.548396,0.212047 -0.190111,0.212046 -0.190111,0.59958 v 0.965177 q 0,0.387534 0.190111,0.59958 0.197422,0.212047 0.548396,0.212047 z m 5.016,0.716571 q -0.599579,0 -0.965177,-0.358286 -0.358286,-0.358285 -0.358286,-0.943241 V 27.601324 H 46.338943 V 26.775073 H 48.5764 v 4.014261 q 0,0.22667 0.124303,0.365597 0.131615,0.131615 0.350974,0.131615 h 1.177224 v 0.826251 z m 3.743722,0.07312 q -0.511837,0 -0.892058,-0.197422 -0.380222,-0.197423 -0.592268,-0.555709 -0.204735,-0.365597 -0.204735,-0.855498 v -0.950553 q 0,-0.489901 0.204735,-0.848187 0.212046,-0.365597 0.592268,-0.56302 0.380221,-0.197422 0.892058,-0.197422 0.504524,0 0.877434,0.197422 0.380221,0.197423 0.584956,0.555709 0.212046,0.350973 0.212046,0.82625 v 0.731195 h -2.486063 v 0.277854 q 0,0.409469 0.212047,0.621516 0.212046,0.204734 0.59958,0.204734 0.285166,0 0.482588,-0.09505 0.204735,-0.102367 0.241295,-0.292478 h 0.906681 q -0.09506,0.519149 -0.541084,0.833562 -0.446029,0.307102 -1.08948,0.307102 z m -0.811627,-2.58843 v 0.138927 l 1.608629,-0.0073 v -0.138927 q 0,-0.416781 -0.204735,-0.643452 -0.204734,-0.22667 -0.592267,-0.22667 -0.402158,0 -0.606892,0.233982 -0.204735,0.226671 -0.204735,0.643452 z"
         id="text3"
         inkscape:label="double"
         aria-label="double" />
    </g>
  </g>
  <g
     inkscape:groupmode="layer"
     id="layer2"
     inkscape:label="Logo2"
     transform="translate(-34.528999,-74.266057)">
    <g
       id="text4"
       style="font-weight:bold;font-size:17.6389px;font-family:'JetBrains Mono';-inkscape-font-specification:'JetBrains Mono Bold';text-align:center;text-anchor:middle;fill:#ffffff;stroke-width:0.264583"
       aria-label="Stack(T)">
      <path
         style="text-align:start;text-anchor:start"
         d="m 55.433076,89.591993 q -1.305278,0 -2.293057,-0.458612 Q 52.16988,88.67477 51.623074,87.828103 51.093907,86.963796 51.093907,85.78199 h 2.169585 q 0,0.864306 0.582083,1.375834 0.599723,0.511528 1.587501,0.511528 0.952501,0 1.499307,-0.493889 0.564445,-0.511528 0.564445,-1.358195 0,-0.635001 -0.370417,-1.111251 -0.352778,-0.493889 -1.023056,-0.670278 l -1.728613,-0.440973 q -1.393473,-0.352778 -2.204862,-1.322917 -0.81139,-0.97014 -0.81139,-2.310696 0,-1.640418 1.075973,-2.610557 1.075973,-0.987779 2.875141,-0.987779 1.217084,0 2.116668,0.440973 0.917223,0.440972 1.411112,1.252362 0.49389,0.79375 0.49389,1.869723 h -2.151946 q 0,-0.740834 -0.511528,-1.199445 -0.511529,-0.458612 -1.358196,-0.458612 -0.829028,0 -1.322917,0.458612 -0.476251,0.440972 -0.476251,1.164167 0,0.599723 0.335139,0.987779 0.352778,0.388055 0.97014,0.564444 l 1.781529,0.440973 q 1.428751,0.352778 2.24014,1.411112 0.829029,1.058334 0.829029,2.522363 0,1.146528 -0.529167,1.993196 -0.511529,0.846667 -1.464029,1.322917 -0.952501,0.458612 -2.240141,0.458612 z m 11.500571,-0.176389 q -1.358196,0 -2.169585,-0.776112 -0.793751,-0.793751 -0.793751,-2.134307 v -4.797781 h -2.681113 v -1.993196 h 2.681113 v -2.734029 h 2.222502 v 2.734029 h 3.862919 v 1.993196 h -3.862919 v 4.744864 q 0,0.423334 0.229305,0.705556 0.246945,0.264584 0.670279,0.264584 h 2.875141 v 1.993196 z m 8.537234,0.176389 q -1.481667,0 -2.345973,-0.829029 -0.846668,-0.846667 -0.846668,-2.204862 0,-1.411112 0.97014,-2.240141 0.97014,-0.846667 2.663474,-0.846667 h 2.363613 v -0.687917 q 0,-1.464029 -1.710974,-1.464029 -0.776111,0 -1.234723,0.299862 -0.458611,0.299861 -0.511528,0.846667 h -2.116668 q 0.07056,-1.305279 1.093612,-2.116668 1.040695,-0.81139 2.786946,-0.81139 1.852085,0 2.875141,0.864306 1.023056,0.864306 1.023056,2.434169 v 6.57931 h -2.151946 v -1.816807 q -0.123472,0.934862 -0.881945,1.464029 -0.758472,0.529167 -1.975557,0.529167 z m 0.705556,-1.799168 q 0.97014,0 1.534585,-0.476251 0.564445,-0.47625 0.564445,-1.27 v -1.146529 h -2.25778 q -0.723195,0 -1.146528,0.405695 -0.423334,0.405694 -0.423334,1.040695 0,0.652639 0.440973,1.058334 0.458611,0.388056 1.287639,0.388056 z m 11.112515,1.799168 q -1.252362,0 -2.187224,-0.458612 -0.917223,-0.47625 -1.428751,-1.322917 -0.511528,-0.864306 -0.511528,-2.028474 v -2.434168 q 0,-1.164168 0.511528,-2.010835 0.511528,-0.864306 1.428751,-1.322917 0.934862,-0.476251 2.187224,-0.476251 1.816807,0 2.910418,0.952501 1.111251,0.934862 1.164168,2.55764 h -2.169585 q -0.05292,-0.758472 -0.582084,-1.164167 -0.511528,-0.423334 -1.322917,-0.423334 -0.899584,0 -1.411112,0.49389 -0.511528,0.47625 -0.511528,1.375834 v 2.451807 q 0,0.899584 0.511528,1.393473 0.511528,0.493889 1.411112,0.493889 0.829028,0 1.340556,-0.405694 0.511528,-0.423334 0.564445,-1.181807 h 2.169585 q -0.05292,1.622779 -1.164168,2.57528 -1.093611,0.934862 -2.910418,0.934862 z m 6.579317,-0.176389 V 76.539206 h 2.204862 v 6.985005 h 1.552224 l 2.310696,-3.810003 h 2.451809 l -2.875143,4.691948 2.980973,5.009448 h -2.504723 l -2.363612,-4.02167 h -1.552224 v 4.02167 z"
         id="path1" />
      <path
         style="text-align:start;letter-spacing:1.06892px;text-anchor:start"
         d="m 111.56009,91.532272 q -2.68111,-0.617362 -4.14514,-2.41653 -1.46403,-1.816806 -1.46403,-4.48028 v -3.157364 q 0,-2.645835 1.46403,-4.445003 1.46403,-1.799168 4.14514,-2.434168 v 2.187224 q -1.56986,0.370417 -2.48708,1.640417 -0.89959,1.252362 -0.89959,3.05153 v 3.157364 q 0,1.799167 0.89959,3.069168 0.91722,1.252362 2.48708,1.622779 z m 7.27782,-2.116668 V 78.532402 h -3.36903 v -1.993196 h 8.96056 v 1.993196 h -3.36903 v 10.883202 z"
         id="path2" />
      <path
         style="text-align:start;text-anchor:start"
         d="m 128.33823,91.532272 v -2.204863 q 1.56986,-0.370417 2.46945,-1.622779 0.91722,-1.270001 0.91722,-3.069168 v -3.157364 q 0,-1.799168 -0.91722,-3.05153 -0.89959,-1.27 -2.46945,-1.640417 v -2.187224 q 2.68111,0.635 4.14514,2.434168 1.46403,1.799168 1.46403,4.445003 v 3.157364 q 0,2.663474 -1.46403,4.48028 -1.46403,1.799168 -4.14514,2.41653 z"
         id="path3" />
    </g>
    <g
       id="g8"
       inkscape:label="icon">
      <path
         id="rect4"
         style="fill:#ffffff;stroke-width:0.264583"
         inkscape:label="line1"
         d="m 35.753358,86.838791 h 12.175469 c 0.67809,0 1.223989,0.545899 1.223989,1.223989 0,0.67809 -0.545899,1.223989 -1.223989,1.223989 H 35.753358 c -0.67809,0 -1.223989,-0.545899 -1.223989,-1.223989 0,-0.67809 0.545899,-1.223989 1.223989,-1.223989 z" />
      <path
         id="rect5"
         style="fill:#ffffff;stroke-width:0.264583"
         inkscape:label="line2"
         d="m 35.753358,81.942833 h 12.175469 c 0.67809,0 1.223989,0.545899 1.223989,1.223989 0,0.67809 -0.545899,1.223989 -1.223989,1.223989 H 35.753358 c -0.67809,0 -1.223989,-0.545899 -1.223989,-1.223989 0,-0.67809 0.545899,-1.223989 1.223989,-1.223989 z" />
      <path
         id="rect6"
         style="fill:#ffffff;stroke-width:0.264583"
         inkscape:label="line3"
         d="m 35.752988,77.047997 h 12.175023 c 0.678089,0 1.223988,0.545899 1.223988,1.223988 0,0.67809 -0.545899,1.223989 -1.223988,1.223989 H 35.752988 c -0.67809,0 -1.223989,-0.545899 -1.223989,-1.223989 0,-0.678089 0.545899,-1.223988 1.223989,-1.223988 z" />
    </g>
    <path
       id="rect8"
       style="fill:none;stroke:#ffffff;stroke-width:0.665"
       inkscape:label="frame"
       transform="scale(1,-1)"
       d="m 114.11752,-91.533432 h 11.663 v 16.934875 h -11.663 z" />
  </g>
</svg>
