<svg xmlns="http://www.w3.org/2000/svg" width="375.755" height="66.519" viewBox="0 0 99.418 17.6"><g aria-label="Stack(T)" style="font-weight:700;font-size:17.6389px;font-family:&quot;JetBrains Mono&quot;;-inkscape-font-specification:&quot;JetBrains Mono Bold&quot;;text-align:center;text-anchor:middle;fill:#fff;stroke-width:.264583"><path d="M55.433 89.592q-1.305 0-2.293-.459-.97-.458-1.517-1.305-.53-.864-.53-2.046h2.17q0 .864.583 1.376.6.511 1.587.511.953 0 1.5-.494.564-.511.564-1.358 0-.635-.37-1.111-.353-.494-1.024-.67l-1.728-.441q-1.394-.353-2.205-1.323t-.812-2.31q0-1.641 1.076-2.611 1.076-.988 2.876-.988 1.217 0 2.116.44.917.442 1.411 1.253.494.794.494 1.87H57.18q0-.741-.511-1.2-.512-.458-1.358-.458-.83 0-1.323.458-.477.441-.477 1.165 0 .6.336.987.352.388.97.565l1.781.44q1.429.354 2.24 1.412.83 1.058.83 2.522 0 1.147-.53 1.993-.511.847-1.464 1.323-.952.459-2.24.459m11.5-.176q-1.358 0-2.169-.777-.794-.793-.794-2.134v-4.798h-2.68v-1.993h2.68V76.98h2.223v2.734h3.863v1.993h-3.863v4.745q0 .424.23.706.246.264.67.264h2.875v1.994zm8.538.176q-1.482 0-2.346-.829-.847-.847-.847-2.205 0-1.411.97-2.24.97-.847 2.664-.847h2.363v-.688q0-1.464-1.71-1.464-.777 0-1.235.3t-.512.847h-2.116q.07-1.305 1.093-2.117 1.04-.811 2.787-.811 1.852 0 2.875.864t1.023 2.434v6.58h-2.152v-1.817q-.123.935-.882 1.464-.758.529-1.975.529m.705-1.8q.97 0 1.535-.475.564-.477.564-1.27V84.9h-2.257q-.724 0-1.147.406-.423.405-.423 1.04 0 .653.44 1.059.46.388 1.288.388m11.113 1.8q-1.252 0-2.187-.459-.917-.476-1.429-1.323-.512-.864-.512-2.028v-2.434q0-1.164.512-2.011.512-.864 1.429-1.323.935-.476 2.187-.476 1.817 0 2.91.952 1.112.935 1.165 2.558h-2.17q-.053-.759-.582-1.164-.512-.424-1.323-.424-.9 0-1.411.494-.512.477-.512 1.376v2.452q0 .9.512 1.393.511.494 1.411.494.829 0 1.34-.405.512-.424.565-1.182h2.17q-.053 1.623-1.165 2.575-1.093.935-2.91.935m6.58-.176V76.539h2.204v6.985h1.552l2.311-3.81h2.452l-2.875 4.692 2.98 5.01H99.99l-2.364-4.022h-1.552v4.022z" style="text-align:start;text-anchor:start" transform="translate(-34.529 -74.266)"/><path d="M111.56 91.532q-2.681-.617-4.145-2.416-1.464-1.817-1.464-4.48v-3.158q0-2.646 1.464-4.445t4.145-2.434v2.187q-1.57.37-2.487 1.64-.9 1.253-.9 3.052v3.157q0 1.8.9 3.07.917 1.252 2.487 1.622zm7.278-2.116V78.532h-3.37V76.54h8.961v1.993h-3.369v10.884z" style="text-align:start;letter-spacing:1.06892px;text-anchor:start" transform="translate(-34.529 -74.266)"/><path d="M128.338 91.532v-2.205q1.57-.37 2.47-1.622.917-1.27.917-3.07v-3.157q0-1.8-.917-3.051-.9-1.27-2.47-1.64v-2.188q2.681.635 4.145 2.434t1.464 4.445v3.157q0 2.664-1.464 4.48-1.464 1.8-4.145 2.417" style="text-align:start;text-anchor:start" transform="translate(-34.529 -74.266)"/></g><path d="M35.753 86.839H47.93c.678 0 1.224.546 1.224 1.224s-.546 1.224-1.224 1.224H35.753a1.22 1.22 0 0 1-1.224-1.224c0-.678.546-1.224 1.224-1.224M35.753 81.943H47.93c.678 0 1.224.546 1.224 1.224s-.546 1.224-1.224 1.224H35.753a1.22 1.22 0 0 1-1.224-1.224c0-.678.546-1.224 1.224-1.224M35.753 77.048h12.175c.678 0 1.224.546 1.224 1.224s-.546 1.224-1.224 1.224H35.753a1.22 1.22 0 0 1-1.224-1.224c0-.678.546-1.224 1.224-1.224" style="fill:#fff;stroke-width:.264583" transform="translate(-34.529 -74.266)"/><path d="M114.118-91.533h11.663V-74.6h-11.663z" style="fill:none;stroke:#fff;stroke-width:.665" transform="matrix(1 0 0 -1 -34.529 -74.266)"/></svg>